<svg id="Capa_1" data-name="Capa 1" xmlns="http://www.w3.org/2000/svg" viewBox="0 0 453.46 125.25"><defs><style>.cls-1{fill:#c01a24;}.cls-2{fill:#fff;}</style></defs><title>icon-amore</title><path class="cls-1" d="M518.32,268.51" transform="translate(-162.77 -146.9)"/><path class="cls-1" d="M474,270.36c11.57-12.44,13.88-16.11,25.43-28.56,11.18-12.05,20.26-25.82,25.73-42.25,2.77-8.33,5.22-16.88,4.81-26-.28-6-3.57-9-8.81-7.9a18.77,18.77,0,0,0-10.57,6.81c-5.06,6.09-6.87,13.69-7.54,21.71-.36,4.23-.28,8.5-.41,12.75,0,1.06-.11,2.11-.17,3.16-4.84-.41-10.51-6.92-10.51-11.79q0-6.84,0-13.68c0-6.71-1.84-12.9-4.43-18.76-2.2-5-5.63-8.43-11-8.08-6.2.4-10.56,3.94-13,10.34a38.47,38.47,0,0,0,.83,30.4Q471.68,215,479,231.44a18.73,18.73,0,0,1,1.42,4.34c-3.72-1.28-7.6-2.39-9.78-5.92-7.84-12.71-15-25.91-19.19-40.79-3.76-13.42-1.44-25.8,7-36.16,6.29-7.69,20.41-7.8,27.82-1.48,6,5.11,8.78,12.43,12.15,19.46.2.42.41.83.67,1.34,3.77-3.86,7.41-7.66,11.13-11.36,4.2-4.2,8.93-6.49,14.73-5.33,8.36,1.68,13.48,8.43,14.68,18,2.52,19.83-2.83,37.08-13.34,52.44-.07.09-.13.19-.2.29a152,152,0,0,1-46.76,43.87c-9.05,5.47-2.6-3.42-7.12,2" transform="translate(-162.77 -146.9)"/><path class="cls-1" d="M242.88,192.38c0,1.79-.14,1.1-6.46,1.92-4.4.69-9.07,1.65-14,2.75-6,14-11.4,27.07-12.91,31.33-.28,1.1-2.61,3.3-4.26,3.3s-2.89-2.2-2.89-5c0-5.5,3.57-15.66,8.11-27.48-5.5,1-11.54,2.2-17.31,3-4.68,6.6-10.45,14.43-19.79,27.35-3.44,4.67-5.08,7.28-6.87,7.28-2.2,0-3.71-4-3.71-4.54,0-1.92,9.34-15.66,18.55-28.58-7.28.42-12.64-.41-13.88-4.12s0-4.39,2.61-4.81c1.65-.27,4.12-.55,7.15-.82l12.09-1.51c8.24-11.68,20.47-28.45,27.89-36.42,4.67-5.08,9.21-9.2,14-9.2,4.12,0,9.34,4.12,9.34,8.24-1.79,3.85-8.11,18.28-14.56,33.39h5.22c2.33.14,4.81.28,7,.55C240.82,189.63,242.88,190.46,242.88,192.38Zm-41.64-1.51c4.26-.55,8.8-1.1,13.19-1.51,4.13-10.17,8.11-19.65,10.45-25,1.65-3.85,3-6.18,2.33-6.18C225.56,158.17,217.87,167.51,201.24,190.87Z" transform="translate(-162.77 -146.9)"/><path class="cls-1" d="M235.87,216.84a8.22,8.22,0,0,1-1.24-3.85c0-1.79.83-3.57,2.2-7.14,2.47-7,6-18.14,7.83-24.6.28-.82,1.24-1.37,2.61-1.37,3,0,7,2.06,7,5.77,0,1.92-2.33,8.38-3.85,11.81-1.09,2.34-.68,1.79.83.28,8.93-8.8,15.11-15.53,19.92-15.53,3.71,0,8,2.75,8,6.46,0,1.79-1.51,6.73-3.16,11-1.78,5.09-2.47,6.6-2.47,7,0,1.92,16.21-16.35,20.06-16.35s7.56,2.88,7.56,6.18S298,209,298,211.62c0,.82.27,1.51,1.23,1.51,1.79,0,6.87-3.16,11.41-8.11l.82-.82c.55-.55,3.57,0,2.34,1.51l-1.1,1.37c-4.4,5.5-11.41,12.37-18.55,12.37-3.85,0-6.87-2.2-6.87-6.73a29.16,29.16,0,0,1,2.2-9.49,17,17,0,0,0,.55-1.92c0-.27,0-.27-.14-.27s-1,.41-2.34,1.51c-5.49,4.26-15.8,15.8-18.41,15.8-3.3,0-7.42-3.57-7.42-7.28,0-4.4,5.36-16.08,5.36-18.14,0-.28,0-.28-.14-.28-1.65,0-23.49,26.8-27.62,26.8C238.07,219.45,236.83,218.62,235.87,216.84Z" transform="translate(-162.77 -146.9)"/><path class="cls-1" d="M392.65,205.71l-1.1,1.37c-5.22,6.46-12.91,13.19-21.71,13.19-6.46,0-11.13-4.26-11.13-10.44,0-10.31,11-20.61,11-25.42,0-2.2-2.19-3.44-5.22-5.77-4.39,8-10.58,15.53-19.65,20.61-2.74,10.72-12.91,24.05-23.36,24.05-7.42,0-11.4-5.64-11.4-13.61,0-15,15-34.49,26.66-34.49,4.39,0,7.28,2.75,7.28,7,0,3.3-1.1,2.06-4.12,2.89C328.62,188.67,320,206,320,213.4c0,2.06.69,3.3,2.2,3.3,4.12,0,10.44-8.11,11.82-13-3.85-8.38,1.78-16.49,6.73-16.49,2.47,0,4.67,2.06,4.81,6.87a50.25,50.25,0,0,0,15.8-18.28c-2.2-3-1.51-7.69.55-11.4,1.79-3.3,4.67-5.77,7.42-5.77,3.3,0,6,2.61,6,3.84,0,1.79-6.6,7.42-6.6,9.49,0,3.16,13.33,6.18,13.33,13.19,0,7.83-11.95,18-11.95,24.59,0,2.61,1.51,3.85,4,3.85,5.5,0,10.86-4,15.39-8.52l.83-.82C390.73,203.78,394,204.06,392.65,205.71Z" transform="translate(-162.77 -146.9)"/><path class="cls-1" d="M427.42,205.71l-1.1,1.37c-4,4.54-11.27,13.74-23.5,13.74-9.89,0-14.7-6.32-14.7-14.29,0-13.19,12.64-27.48,23.22-27.48,5.63,0,9.48,3.16,9.48,7.7,0,3.84-2.75,8.65-9.07,13.32-4.26,3.16-8.66,5.5-13.33,6.05,0,4.81,2.48,8.52,7.7,8.52,6.32,0,13.6-4.81,18.14-9.62l.82-.82C425.63,203.65,428.65,204.2,427.42,205.71Zm-28.17-5c8.24-3.3,13.74-9.89,13.74-12.78,0-1-.55-1.37-1.51-1.37C408.18,186.61,401.58,193.2,399.25,200.76Z" transform="translate(-162.77 -146.9)"/><path class="cls-1" d="M541.6,210.79c0-4,1.38-9.34,4.81-16.62,1.93-4.13,4-8.11,6.19-10,3.71-3.29,13-2.06,11.81,1.38-1,2.61-5.22,8.11-8.24,13.33-2.61,4.67-4.4,9.07-4.4,12.09,0,2.34,1.1,3.71,3.71,3.71,5.77,0,12.51-5.22,16.35-9.62l.83-.82c.55-.55,3.57,0,2.33,1.51l-1.1,1.37c-6,6.73-12.23,13.74-21.57,13.74C548.34,220.82,541.6,218.62,541.6,210.79Z" transform="translate(-162.77 -146.9)"/><path class="cls-1" d="M615.94,205.71l-1.1,1.37c-3.85,4.81-9.34,8.8-17.73,8.38-4.12,4.54-9.2,7.84-14.42,7.84-7.42,0-11.41-5.64-11.41-13.61,0-15,15-34.49,26.66-34.49,4.4,0,7.28,2.75,7.28,7,0,3.3-1.1,2.06-4.12,2.89-11.27,3.57-19.79,20.88-19.79,28.3,0,2.06.42,3.71,1.93,3.71,3.71,0,10.58-8.52,12-13.46-3.85-8.38,1.79-16.49,6.73-16.49,2.48,0,4.81,2.2,4.81,7.14s-2.61,11.68-6.45,17.32c4.8.27,8.79-2.89,12.5-6.6l.82-.82C614.15,203.65,617.18,204.2,615.94,205.71Z" transform="translate(-162.77 -146.9)"/><path class="cls-2" d="M275.67,240c0,3.43-2.59,5.56-6.7,5.56h-2.62v3.94h-4.27V234.45H269C273.08,234.45,275.67,236.58,275.67,240Zm-4.31,0c0-1.4-.88-2.21-2.65-2.21h-2.36v4.41h2.36C270.48,242.22,271.36,241.4,271.36,240Z" transform="translate(-162.77 -146.9)"/><path class="cls-2" d="M286.35,234.45h4.26v15.07h-4.26Z" transform="translate(-162.77 -146.9)"/><path class="cls-2" d="M315,246.14v3.38h-13.5v-2.67l7.6-9h-7.4v-3.38h13v2.67l-7.6,9Z" transform="translate(-162.77 -146.9)"/><path class="cls-2" d="M338.25,246.14v3.38h-13.5v-2.67l7.6-9h-7.41v-3.38h13v2.67l-7.6,9Z" transform="translate(-162.77 -146.9)"/><path class="cls-2" d="M360.84,246.23v3.29h-12.1V234.45h11.82v3.29H353v2.54h6.69v3.19H353v2.76Z" transform="translate(-162.77 -146.9)"/><path class="cls-2" d="M378.41,245.51h-2.33v4h-4.26V234.45h6.89c4.11,0,6.7,2.13,6.7,5.57a5,5,0,0,1-3,4.76l3.25,4.74h-4.57Zm0-7.7h-2.37v4.41h2.37c1.77,0,2.65-.82,2.65-2.2S380.22,237.81,378.45,237.81Z" transform="translate(-162.77 -146.9)"/><path class="cls-2" d="M396.37,234.45h4.26v15.07h-4.26Zm2.91-4.5h4.09l-4.05,3.27h-2.93Z" transform="translate(-162.77 -146.9)"/><path class="cls-2" d="M422.38,246.59H416l-1.18,2.93h-4.35l6.65-15.07h4.2L428,249.52h-4.43Zm-1.25-3.14-1.93-4.83-1.94,4.83Z" transform="translate(-162.77 -146.9)"/><path class="cls-1" d="M579.41,156a24.13,24.13,0,0,1,8.51,11.69c.09.24.06.37-.2.48q-2.21,1-4.39,2c-.23.1-.33.07-.4-.18-.21-.68-.22-.67-.88-.36l-10.93,5c-2.6,1.19-4.26,2.24-6.87,3.42-.14.07-.72-.48-.86-.6s-.8-.54-.78-.69c.62-5.06,1.47-9,2.1-14.09.22-1.82.45-3.63.67-5.44,0-.41,0-.41-.37-.41s-.4,0-.35-.4c.18-1.55.37-3.1.54-4.66,0-.32.16-.39.45-.38a23.93,23.93,0,0,1,9.73,2.28,21.17,21.17,0,0,1,1.89,1A22.44,22.44,0,0,1,579.41,156Zm-15.35,20.64c.64-.29,1.2-.56,1.77-.8a.53.53,0,0,0,.39-.57,2.88,2.88,0,0,1,1.78-2.76,2.92,2.92,0,0,1,3.33.49.4.4,0,0,0,.52.09c.78-.37,1.57-.73,2.36-1.07a.35.35,0,0,0,.25-.42A2.09,2.09,0,0,1,578,170a.33.33,0,0,0,.43.07l3.61-1.64c.22-.1.24-.2.14-.4-.24-.46-.46-.94-.7-1.41s-.2-.38-.52-.11a4.11,4.11,0,0,1-5.53-6.07c.22-.22.23-.34,0-.51-.59-.38-1.19-.74-1.81-1.06a18.5,18.5,0,0,0-6.81-2c-.2,0-.34,0-.37.25-.3,2.49-.61,5-.92,7.48a.39.39,0,0,0,.22.45,4,4,0,0,1,1.91,2.24,4.1,4.1,0,0,1-2.82,5.34.4.4,0,0,0-.34.38c0,.38-.09.76-.13,1.14C564.26,174.93,564.16,175.74,564.06,176.62Z" transform="translate(-162.77 -146.9)"/><path class="cls-1" d="M567.27,164.71a3,3,0,1,1,4.13-.38A3,3,0,0,1,567.27,164.71Z" transform="translate(-162.77 -146.9)"/><path class="cls-1" d="M569.73,170.64a2.09,2.09,0,0,1-.44-2.91,2.11,2.11,0,1,1,.44,2.91Z" transform="translate(-162.77 -146.9)"/></svg>