<svg xmlns="http://www.w3.org/2000/svg" xmlns:xlink="http://www.w3.org/1999/xlink" width="500" height="240" viewBox="0 0 500 240">
  <defs>
    <clipPath id="clip-banner1">
      <rect width="500" height="240"/>
    </clipPath>
  </defs>
  <g id="banner1" clip-path="url(#clip-banner1)">
    <rect width="500" height="240" fill="#fff"/>
    <g id="Grupo_19" data-name="Grupo 19">
      <rect id="Rectángulo_11" data-name="Rectángulo 11" width="500" height="240"/>
    </g>
    <g id="Grupo_23" data-name="Grupo 23" transform="translate(131.182 87)">
      <path id="Trazado_6" data-name="Trazado 6" d="M518.321,268.515" transform="translate(-331.637 -204.659)" fill="#d50017"/>
      <path id="Trazado_7" data-name="Trazado 7" d="M462.455,211.722c6.072-6.532,7.286-8.455,13.353-14.993a60.486,60.486,0,0,0,13.508-22.185c1.455-4.375,2.741-8.862,2.525-13.655-.144-3.178-1.873-4.72-4.622-4.147a9.812,9.812,0,0,0-5.549,3.573c-2.66,3.2-3.611,7.191-3.964,11.4-.186,2.22-.144,4.465-.211,6.7-.016.553-.058,1.1-.088,1.658-2.542-.216-5.519-3.635-5.519-6.192,0-2.393,0-4.787.009-7.181a23.822,23.822,0,0,0-2.328-9.85c-1.155-2.605-2.955-4.429-5.778-4.246-3.257.211-5.545,2.069-6.829,5.433a20.193,20.193,0,0,0,.432,15.962q3.832,8.641,7.645,17.291a9.864,9.864,0,0,1,.747,2.279c-1.951-.671-3.99-1.251-5.136-3.107-4.116-6.674-7.893-13.606-10.077-21.418-1.97-7.043-.752-13.543,3.7-18.983,3.3-4.04,10.717-4.1,14.608-.779,3.15,2.686,4.613,6.53,6.377,10.218.106.221.221.437.355.7,1.979-2.025,3.892-4.02,5.843-5.967,2.206-2.2,4.69-3.406,7.735-2.8,4.389.879,7.076,4.424,7.71,9.432,1.318,10.414-1.489,19.472-7.005,27.534l-.106.155a79.768,79.768,0,0,1-24.549,23.034c-4.753,2.874-1.368-1.8-3.743,1.071" transform="translate(-299.026 -146.898)" fill="#d50017"/>
      <g id="Grupo_20" data-name="Grupo 20" transform="translate(0 0)">
        <path id="Trazado_8" data-name="Trazado 8" d="M204.83,170.779c0,.938-.072.577-3.39,1.01-2.309.361-4.762.866-7.359,1.443-3.174,7.359-5.988,14.213-6.782,16.449a3.129,3.129,0,0,1-2.237,1.731c-.938,0-1.515-1.154-1.515-2.6,0-2.886,1.876-8.224,4.257-14.429-2.886.5-6.06,1.154-9.09,1.587-2.453,3.463-5.483,7.575-10.389,14.357-1.8,2.453-2.669,3.824-3.608,3.824-1.154,0-1.948-2.092-1.948-2.381,0-1.01,4.906-8.224,9.74-15.006-3.824.216-6.637-.216-7.287-2.164-.578-2.02,0-2.309,1.37-2.525.866-.144,2.165-.289,3.752-.433l6.348-.793c4.329-6.133,10.75-14.934,14.646-19.119,2.453-2.669,4.834-4.834,7.359-4.834,2.164,0,4.906,2.164,4.906,4.329-.938,2.02-4.257,9.6-7.647,17.532H198.7c1.227.072,2.525.144,3.679.289C203.748,169.335,204.83,169.768,204.83,170.779Zm-21.86-.794c2.236-.289,4.617-.577,6.926-.793,2.164-5.339,4.257-10.317,5.483-13.131.866-2.02,1.587-3.246,1.227-3.246C195.739,152.814,191.7,157.72,182.97,169.985Z" transform="translate(-162.769 -146.898)" fill="#d50017"/>
        <path id="Trazado_9" data-name="Trazado 9" d="M235.281,199.283a4.344,4.344,0,0,1-.65-2.02c0-.938.433-1.876,1.155-3.752,1.3-3.68,3.174-9.523,4.112-12.914a1.327,1.327,0,0,1,1.371-.721c1.587,0,3.679,1.082,3.679,3.03,0,1.01-1.226,4.4-2.02,6.205-.577,1.226-.361.938.433.144,4.689-4.617,7.936-8.153,10.461-8.153,1.948,0,4.185,1.443,4.185,3.391a24.6,24.6,0,0,1-1.66,5.771c-.938,2.669-1.3,3.463-1.3,3.68,0,1.01,8.513-8.586,10.533-8.586,1.948,0,3.968,1.515,3.968,3.247,0,1.659-1.66,6.565-1.66,7.936,0,.433.144.794.65.794.938,0,3.607-1.66,5.988-4.257l.433-.433c.289-.288,1.876,0,1.227.794l-.577.721c-2.309,2.886-5.988,6.493-9.74,6.493a3.312,3.312,0,0,1-3.607-3.535,15.267,15.267,0,0,1,1.154-4.978,8.546,8.546,0,0,0,.289-1.01c0-.144,0-.144-.072-.144-.144,0-.5.216-1.226.794-2.886,2.236-8.3,8.3-9.667,8.3a4.3,4.3,0,0,1-3.9-3.823c0-2.309,2.814-8.441,2.814-9.523,0-.144,0-.144-.072-.144-.866,0-12.337,14.068-14.5,14.068A2.168,2.168,0,0,1,235.281,199.283Z" transform="translate(-196.9 -162.561)" fill="#d50017"/>
        <path id="Trazado_10" data-name="Trazado 10" d="M353.43,183.324l-.578.721c-2.741,3.391-6.782,6.926-11.4,6.926-3.391,0-5.844-2.237-5.844-5.483,0-5.411,5.772-10.822,5.772-13.347,0-1.155-1.155-1.8-2.742-3.03a26.923,26.923,0,0,1-10.317,10.822c-1.443,5.627-6.782,12.625-12.264,12.625-3.9,0-5.988-2.958-5.988-7.143,0-7.864,7.864-18.108,14-18.108a3.524,3.524,0,0,1,3.824,3.679c0,1.732-.577,1.083-2.164,1.515-5.916,1.876-10.461,10.966-10.461,14.862,0,1.083.361,1.732,1.155,1.732,2.164,0,5.483-4.257,6.2-6.854-2.02-4.4.938-8.658,3.535-8.658,1.3,0,2.453,1.082,2.525,3.607a26.415,26.415,0,0,0,8.3-9.595c-1.155-1.588-.794-4.041.289-5.988.938-1.732,2.453-3.03,3.9-3.03,1.732,0,3.175,1.371,3.175,2.02,0,.938-3.463,3.9-3.463,4.978,0,1.66,7,3.246,7,6.926,0,4.112-6.277,9.451-6.277,12.914a1.847,1.847,0,0,0,2.092,2.02c2.886,0,5.7-2.092,8.08-4.473l.433-.433C352.419,182.314,354.151,182.458,353.43,183.324Z" transform="translate(-232.729 -152.445)" fill="#d50017"/>
        <path id="Trazado_11" data-name="Trazado 11" d="M408.752,193.047l-.578.721c-2.092,2.381-5.915,7.214-12.337,7.214-5.195,0-7.719-3.318-7.719-7.5,0-6.925,6.637-14.429,12.193-14.429,2.958,0,4.978,1.659,4.978,4.04,0,2.02-1.443,4.545-4.762,7a14.946,14.946,0,0,1-7,3.174c0,2.525,1.3,4.473,4.04,4.473,3.319,0,7.143-2.525,9.523-5.05l.434-.433C407.813,191.965,409.4,192.254,408.752,193.047Zm-14.79-2.6c4.329-1.731,7.214-5.194,7.214-6.709,0-.505-.289-.722-.793-.722C398.652,183.019,395.188,186.482,393.962,190.45Z" transform="translate(-269.797 -162.169)" fill="#d50017"/>
        <path id="Trazado_12" data-name="Trazado 12" d="M541.6,197.214c0-2.092.722-4.906,2.525-8.73,1.01-2.165,2.092-4.257,3.247-5.267,1.948-1.732,6.854-1.082,6.2.721-.505,1.371-2.742,4.257-4.328,7-1.371,2.453-2.309,4.762-2.309,6.349a1.721,1.721,0,0,0,1.948,1.948c3.031,0,6.565-2.741,8.585-5.05l.433-.433c.289-.288,1.875,0,1.226.794l-.577.721c-3.175,3.535-6.422,7.214-11.328,7.214C545.138,202.481,541.6,201.327,541.6,197.214Z" transform="translate(-342.694 -163.667)" fill="#d50017"/>
        <path id="Trazado_13" data-name="Trazado 13" d="M594.73,191.22l-.577.721a10.717,10.717,0,0,1-9.308,4.4c-2.164,2.381-4.833,4.112-7.574,4.112-3.9,0-5.988-2.958-5.988-7.143,0-7.864,7.864-18.108,14-18.108a3.523,3.523,0,0,1,3.823,3.679c0,1.732-.577,1.083-2.164,1.515-5.916,1.876-10.389,10.966-10.389,14.862,0,1.083.217,1.948,1.01,1.948,1.948,0,5.555-4.473,6.277-7.07-2.02-4.4.938-8.658,3.535-8.658,1.3,0,2.526,1.155,2.526,3.751,0,2.669-1.371,6.133-3.391,9.09,2.524.144,4.617-1.515,6.565-3.463l.433-.433C593.793,190.138,595.379,190.426,594.73,191.22Z" transform="translate(-356.791 -160.342)" fill="#d50017"/>
      </g>
      <g id="Grupo_21" data-name="Grupo 21" transform="translate(52.145 43.606)">
        <path id="Trazado_14" data-name="Trazado 14" d="M269.215,237.376c0,1.8-1.357,2.917-3.516,2.917H264.32v2.069h-2.238v-7.914H265.7C267.859,234.448,269.215,235.567,269.215,237.376Zm-2.261,0c0-.735-.464-1.165-1.39-1.165H264.32v2.318h1.244C266.491,238.529,266.955,238.1,266.955,237.376Z" transform="translate(-262.082 -232.085)" fill="#fff"/>
        <path id="Trazado_15" data-name="Trazado 15" d="M286.351,234.448h2.239v7.914h-2.239Z" transform="translate(-273.608 -232.085)" fill="#fff"/>
        <path id="Trazado_16" data-name="Trazado 16" d="M308.6,240.587v1.775h-7.088v-1.4l3.99-4.737h-3.889v-1.775h6.817v1.4l-3.991,4.737Z" transform="translate(-280.809 -232.085)" fill="#fff"/>
        <path id="Trazado_17" data-name="Trazado 17" d="M331.836,240.587v1.775h-7.089v-1.4l3.991-4.737h-3.889v-1.775h6.817v1.4l-3.991,4.737Z" transform="translate(-291.844 -232.085)" fill="#fff"/>
        <path id="Trazado_18" data-name="Trazado 18" d="M355.09,240.632v1.73h-6.353v-7.914h6.206v1.73h-3.99v1.334h3.516v1.673h-3.516v1.447Z" transform="translate(-303.238 -232.085)" fill="#fff"/>
        <path id="Trazado_19" data-name="Trazado 19" d="M375.281,240.259H374.06v2.1h-2.239v-7.914h3.618c2.16,0,3.516,1.119,3.516,2.928a2.626,2.626,0,0,1-1.549,2.5l1.707,2.487h-2.4Zm.023-4.047H374.06v2.318H375.3c.927,0,1.39-.43,1.39-1.153S376.23,236.212,375.3,236.212Z" transform="translate(-314.202 -232.085)" fill="#fff"/>
        <path id="Trazado_20" data-name="Trazado 20" d="M396.371,232.311h2.238v7.914h-2.238Zm1.526-2.363h2.148l-2.125,1.718h-1.538Z" transform="translate(-325.862 -229.948)" fill="#fff"/>
        <path id="Trazado_21" data-name="Trazado 21" d="M416.728,240.824h-3.346l-.622,1.538h-2.284l3.493-7.914h2.2l3.5,7.914h-2.329Zm-.656-1.65-1.018-2.532-1.017,2.532Z" transform="translate(-332.561 -232.085)" fill="#fff"/>
      </g>
      <g id="Grupo_22" data-name="Grupo 22" transform="translate(209.938 2.316)">
        <path id="Trazado_22" data-name="Trazado 22" d="M571.43,153.76a12.684,12.684,0,0,1,4.471,6.14c.043.127.028.192-.106.25q-1.158.51-2.308,1.039c-.119.054-.17.037-.209-.091-.11-.358-.113-.352-.463-.193q-2.867,1.308-5.736,2.613c-1.369.623-2.24,1.174-3.61,1.8-.074.034-.377-.256-.451-.315s-.418-.284-.409-.362c.325-2.66.774-4.742,1.1-7.4q.176-1.427.353-2.854c.027-.215.027-.215-.194-.215s-.211,0-.186-.21c.1-.815.2-1.63.285-2.446.018-.17.082-.2.237-.2a12.618,12.618,0,0,1,5.11,1.2c.338.159.669.33.991.519A12.037,12.037,0,0,1,571.43,153.76ZM563.37,164.6c.336-.152.631-.293.932-.419a.279.279,0,0,0,.2-.3,1.513,1.513,0,0,1,.936-1.446,1.53,1.53,0,0,1,1.747.258.223.223,0,0,0,.276.048c.41-.194.822-.383,1.238-.563a.184.184,0,0,0,.131-.219,1.1,1.1,0,0,1,1.879-.838.171.171,0,0,0,.226.039c.631-.291,1.262-.581,1.9-.863.118-.052.123-.106.072-.207-.125-.246-.241-.5-.365-.742-.1-.2-.1-.2-.275-.058a2.157,2.157,0,0,1-2.9-3.187c.112-.116.117-.176-.024-.268-.309-.2-.623-.39-.949-.558a9.846,9.846,0,0,0-3.577-1.06c-.105-.01-.177-.02-.2.13-.154,1.311-.317,2.622-.479,3.932a.2.2,0,0,0,.113.233,2.093,2.093,0,0,1,1,1.178,2.153,2.153,0,0,1-1.483,2.8.2.2,0,0,0-.175.2c-.018.2-.047.4-.071.6C563.476,163.71,563.425,164.136,563.37,164.6Z" transform="translate(-562.61 -151.31)" fill="#d50017"/>
        <path id="Trazado_23" data-name="Trazado 23" d="M566.749,162.208a1.553,1.553,0,1,1,2.166-.2A1.558,1.558,0,0,1,566.749,162.208Z" transform="translate(-564.301 -155.173)" fill="#d50017"/>
        <path id="Trazado_24" data-name="Trazado 24" d="M569.332,168.858a1.1,1.1,0,1,1,1.546-.212A1.1,1.1,0,0,1,569.332,168.858Z" transform="translate(-565.592 -158.705)" fill="#d50017"/>
      </g>
    </g>
  </g>
</svg>
