<svg xmlns="http://www.w3.org/2000/svg" width="69.319" height="23.44" viewBox="0 0 69.319 23.44">
  <g id="Grupo_5" data-name="Grupo 5" transform="translate(-139.76 -762.117)">
    <g id="Grupo_2" data-name="Grupo 2" transform="translate(139.76 762.117)">
      <g id="Grupo_1" data-name="Grupo 1" transform="translate(0)">
        <g id="Grupo_3" data-name="Grupo 3">
          <path id="Trazado_3" data-name="Trazado 3" d="M-47.24-14.306V-4.027h4.174c3.1,0,4.929-1.916,4.929-5.2s-1.823-5.079-4.929-5.079Zm2.614,2.108h1.218c1.653,0,2.614,1.047,2.614,2.977,0,2.051-.912,3.084-2.614,3.084h-1.218Zm11.984,8.17h2.522v-7.757h-2.522Zm1.261-8.384a1.243,1.243,0,0,0,1.289-1.239,1.237,1.237,0,0,0-1.289-1.232,1.244,1.244,0,0,0-1.3,1.232A1.249,1.249,0,0,0-31.381-12.411Zm6.741,2.977c0,1.19.8,1.987,2.315,2.308l1.467.306c.605.128.841.306.841.62,0,.413-.413.655-1.083.655-.741,0-1.2-.342-1.275-.919h-2.45c.107,1.588,1.417,2.621,3.683,2.621,2.165,0,3.626-1.033,3.626-2.643,0-1.175-.662-1.809-2.208-2.137l-1.624-.328c-.584-.121-.869-.342-.869-.648,0-.4.4-.67,1.019-.67.7,0,1.14.349,1.161.9h2.308c-.014-1.6-1.332-2.607-3.448-2.607C-23.315-11.97-24.64-10.987-24.64-9.434Zm8.713-4.089v1.738h-1.054v1.859h1.054v3.768c0,1.524.8,2.144,2.814,2.144a5.657,5.657,0,0,0,1.1-.093V-5.9a2.6,2.6,0,0,1-.5.036c-.605,0-.89-.271-.89-.8V-9.925H-12v-1.859h-1.4v-1.738Zm8.2,7.871c-.6,0-1-.3-1-.791,0-.456.37-.762,1.033-.812l1.41-.093v.534A1.3,1.3,0,0,1-7.728-5.651Zm-.9,1.738a2.6,2.6,0,0,0,2.3-1.218h.05v1.1h2.457V-9.348c0-1.56-1.375-2.621-3.448-2.621-2.165,0-3.519,1.047-3.59,2.635h2.272a1.077,1.077,0,0,1,1.19-.833c.662,0,1.1.342,1.1.962v.442l-1.816.107c-2.009.121-3.127.933-3.127,2.386A2.428,2.428,0,0,0-8.625-3.913Zm6.07-.114H-.026V-8.415a1.31,1.31,0,0,1,1.3-1.46c.826,0,1.247.527,1.247,1.41v4.438H5.045V-9.006c0-1.845-.962-2.928-2.692-2.928a2.388,2.388,0,0,0-2.4,1.61H-.1v-1.46H-2.555Zm16.2-4.694A3.328,3.328,0,0,0,9.976-11.97a3.7,3.7,0,0,0-3.925,4.06A3.7,3.7,0,0,0,9.99-3.842c2.187,0,3.59-1.225,3.654-3.2H11.329a1.281,1.281,0,0,1-1.311,1.282c-.89,0-1.41-.769-1.41-2.151s.52-2.137,1.41-2.137a1.312,1.312,0,0,1,1.3,1.325ZM18.3-10.175a1.365,1.365,0,0,1,1.4,1.382H16.879A1.418,1.418,0,0,1,18.3-10.175Zm1.46,3.7a1.362,1.362,0,0,1-1.382.848A1.475,1.475,0,0,1,16.844-7.2v-.157h5.235v-.712a3.615,3.615,0,0,0-3.825-3.9c-2.372,0-3.861,1.6-3.861,4.1a3.668,3.668,0,0,0,3.946,4.024c2.03,0,3.455-1.033,3.7-2.635ZM-45.09,5.395c.028,1.994,1.645,3.155,4.267,3.155,2.65,0,4.338-1.3,4.338-3.348,0-1.624-.912-2.543-2.942-2.935l-1.332-.249C-41.835,1.8-42.29,1.491-42.29.936c0-.627.605-1.04,1.517-1.04.94,0,1.631.449,1.681,1.2h2.408c-.028-1.93-1.546-3.177-4.117-3.177-2.379,0-4.089,1.282-4.089,3.277,0,1.56.976,2.586,2.871,2.949l1.346.264c1.168.242,1.6.52,1.6,1.09,0,.62-.662,1.076-1.681,1.076-.969,0-1.759-.47-1.852-1.175ZM-31.7,8.557c2.443,0,3.967-1.474,3.967-4.067A3.718,3.718,0,0,0-31.7.43a3.729,3.729,0,0,0-3.967,4.06A3.693,3.693,0,0,0-31.7,8.557Zm0-1.852c-.869,0-1.4-.791-1.4-2.208,0-1.4.548-2.215,1.4-2.215s1.41.819,1.41,2.215C-30.288,5.915-30.837,6.705-31.7,6.705Zm4.986,1.667h2.529V-1.906h-2.529ZM-15.366.615h-2.522V5a1.3,1.3,0,0,1-1.282,1.46c-.791,0-1.268-.491-1.268-1.41V.615h-2.529V5.6a2.7,2.7,0,0,0,2.842,2.92A2.214,2.214,0,0,0-17.866,6.9h.05V8.372h2.45Zm1.852-1.738V.615h-1.054V2.474h1.054V6.242c0,1.524.8,2.144,2.814,2.144a5.657,5.657,0,0,0,1.1-.093V6.5a2.6,2.6,0,0,1-.5.036c-.605,0-.89-.271-.89-.8V2.474h1.4V.615h-1.4V-1.123Zm4.986,9.495h2.522V.615H-8.528ZM-7.267-.011A1.243,1.243,0,0,0-5.978-1.251,1.237,1.237,0,0,0-7.267-2.483a1.244,1.244,0,0,0-1.3,1.232A1.249,1.249,0,0,0-7.267-.011Zm6.225,8.569c2.443,0,3.967-1.474,3.967-4.067A3.718,3.718,0,0,0-1.041.43,3.729,3.729,0,0,0-5.009,4.49,3.693,3.693,0,0,0-1.041,8.557Zm0-1.852c-.869,0-1.4-.791-1.4-2.208,0-1.4.548-2.215,1.4-2.215S.369,3.1.369,4.5C.369,5.915-.179,6.705-1.041,6.705ZM3.9,8.372H6.431V3.984a1.31,1.31,0,0,1,1.3-1.46c.826,0,1.247.527,1.247,1.41V8.372H11.5V3.393C11.5,1.548,10.541.466,8.81.466a2.388,2.388,0,0,0-2.4,1.61h-.05V.615H3.9Zm8.654-5.406c0,1.19.8,1.987,2.315,2.308l1.467.306c.605.128.841.306.841.62,0,.413-.413.655-1.083.655-.741,0-1.2-.342-1.275-.919h-2.45c.107,1.588,1.417,2.621,3.683,2.621,2.165,0,3.626-1.033,3.626-2.643,0-1.175-.662-1.809-2.208-2.137L15.847,3.45c-.584-.121-.869-.342-.869-.648,0-.4.4-.67,1.019-.67.7,0,1.14.349,1.161.9h2.308C19.451,1.434,18.134.43,16.018.43,13.881.43,12.556,1.413,12.556,2.966Z" transform="translate(47.24 14.883)"/>
          <path id="Trazado_1" data-name="Trazado 1" d="M158.131,766.381,153.7,770.89l1.166,1.166,4.614-4.614Z" transform="translate(-143.532 -763.271)"/>
          <path id="Trazado_2" data-name="Trazado 2" d="M158.131,772.048l-4.431-4.508,1.119-1.189,4.661,4.637Z" transform="translate(-137.697 -763.263)"/>
        </g>
      </g>
    </g>
  </g>
</svg>
